<?xml version="1.0" encoding="utf-8"?>
<!-- Generator: Adobe Illustrator 24.1.1, SVG Export Plug-In . SVG Version: 6.00 Build 0)  -->
<svg version="1.1" id="Layer_1" xmlns="http://www.w3.org/2000/svg" xmlns:xlink="http://www.w3.org/1999/xlink" x="0px" y="0px"
	 viewBox="0 0 150 25" style="enable-background:new 0 0 150 25;" xml:space="preserve">
<style type="text/css">
	.st0{fill-rule:evenodd;clip-rule:evenodd;fill:#FFF5EC;}
	.st1{filter:url(#Adobe_OpacityMaskFilter);}
	.st2{fill-rule:evenodd;clip-rule:evenodd;fill:#FFFFFF;}
	.st3{mask:url(#mask-2_1_);fill-rule:evenodd;clip-rule:evenodd;fill:#1F2059;}
	.st4{fill-rule:evenodd;clip-rule:evenodd;fill:#1F2059;}
	.st5{fill:#FFFFFF;}
</style>
<desc>Created with Sketch.</desc>
<g id="Connectplus_dashboard">
	<g id="Connectplus_logo_white">
		<path id="Rectangle" class="st0" d="M4,0h16.3c2.2,0,4,1.8,4,4v16.3c0,2.2-1.8,4-4,4H4c-2.2,0-4-1.8-4-4V4C0,1.8,1.8,0,4,0z"/>
		<g id="Group-11" transform="translate(5.675676, 8.918919)">
			<g id="Group-3" transform="translate(0.810811, 0.000000)">
				<g id="Clip-2">
				</g>
				<defs>
					<filter id="Adobe_OpacityMaskFilter" filterUnits="userSpaceOnUse" x="0" y="0" width="12.2" height="6.5">
						<feColorMatrix  type="matrix" values="1 0 0 0 0  0 1 0 0 0  0 0 1 0 0  0 0 0 1 0"/>
					</filter>
				</defs>
				<mask maskUnits="userSpaceOnUse" x="0" y="0" width="12.2" height="6.5" id="mask-2_1_">
					<g class="st1">
						<polygon id="path-1_1_" class="st2" points="0,0 12.2,0 12.2,6.5 0,6.5 						"/>
					</g>
				</mask>
				<path id="Fill-1" class="st3" d="M0,4.3c0.4,0.1,0.7,0,1,0c0.8-0.1,1.6-0.5,2.3-1c0.5-0.3,1-0.7,1.5-1.1C5.2,2,5.6,1.7,6,1.4
					c0.4-0.3,0.9-0.6,1.4-0.8C7.7,0.4,8,0.2,8.4,0.1C8.7,0.1,8.9,0,9.2,0c0.2,0,0.5,0,0.7,0c0.5,0.1,0.9,0.2,1.3,0.5
					c0.3,0.2,0.6,0.5,0.7,0.9c0.1,0.2,0.2,0.4,0.2,0.7c0,0.2,0,0.4,0,0.5c0,0.3-0.1,0.6-0.2,0.9c-0.1,0.2-0.1,0.3-0.2,0.5
					c0,0,0,0,0,0c0,0,0,0,0,0c-0.1-0.5-0.4-0.8-0.9-1c-0.3-0.2-0.7-0.2-1.1-0.2C9.5,2.8,9.3,2.8,9,2.9C8.6,3,8.3,3.2,7.9,3.4
					C7.2,3.9,6.5,4.6,5.8,5.2C5.5,5.6,5.1,5.9,4.6,6.1C4.4,6.3,4.2,6.4,3.9,6.4c-0.2,0-0.5,0.1-0.7,0.1c-0.5,0-1-0.2-1.5-0.5
					C1.3,5.7,0.8,5.3,0.4,4.9C0.3,4.7,0.2,4.5,0,4.3C0,4.4,0,4.3,0,4.3"/>
			</g>
			<path id="Fill-4" class="st4" d="M5.7,1.2C5.5,1.3,5.3,1.4,5.1,1.6C4.7,1.8,4.3,2.1,3.8,2.4C3.4,2.7,2.9,2.9,2.4,3
				C2.2,3.1,2,3.2,1.8,3.2c-0.2,0-0.4,0-0.6,0c-0.3,0-0.6-0.1-0.8-0.4C0.2,2.7,0.2,2.5,0.1,2.4C0,2.2,0,2,0,1.8
				c0-0.3,0.1-0.5,0.2-0.7c0.2-0.4,0.5-0.6,0.9-0.8c0.2-0.1,0.5-0.2,0.7-0.2C2.1,0,2.3,0,2.6,0c0.3,0,0.5,0,0.8,0.1
				c0.3,0.1,0.6,0.1,0.8,0.2c0.3,0.1,0.6,0.3,0.9,0.5C5.3,0.9,5.4,1,5.7,1.2C5.6,1.2,5.6,1.2,5.7,1.2"/>
			<path id="Fill-6" class="st4" d="M5.7,7.2c0.1,0,0.2-0.1,0.4-0.1c0.6-0.2,1-0.6,1.5-0.9c0.4-0.3,0.8-0.7,1.2-1
				c0.4-0.3,0.9-0.6,1.4-0.9C10.6,4.1,11,4,11.5,4.1c0.4,0.1,0.6,0.3,0.7,0.6c0.1,0.4-0.1,0.6-0.3,0.9c-0.3,0.3-0.6,0.5-1,0.7
				c-0.5,0.2-1,0.4-1.5,0.6C9,7,8.7,7.1,8.4,7.2c-0.6,0.1-1.3,0.1-2,0.1C6.2,7.3,5.9,7.2,5.7,7.2C5.7,7.2,5.7,7.2,5.7,7.2"/>
		</g>
		<g>
			<path class="st5" d="M34.9,17.5l-0.6-2.1h-2.9l-0.7,2.1H28l3.4-10.9h3.5l3.4,10.9H34.9z M31.9,13h1.8l-0.9-3.2L31.9,13z"/>
			<path class="st5" d="M42.3,6.3v2.5h-3.2V6.3H42.3z M42.3,9.4v8.1h-3.2V9.4H42.3z"/>
			<path class="st5" d="M51.9,17.5h-3v-1.1c-0.4,0.8-1.2,1.2-2.2,1.2c-0.9,0-1.7-0.4-2.3-1.1c-0.6-0.7-0.9-1.8-0.9-3.2
				c0-1.3,0.3-2.3,0.9-3.1c0.6-0.8,1.4-1.1,2.3-1.1c0.8,0,1.5,0.3,2,0.9V6.6h3.1V17.5z M48.8,12.3c0-0.7-0.3-1.1-0.9-1.1
				c-0.4,0-0.7,0.2-0.8,0.7c-0.1,0.5-0.2,1-0.2,1.7c0,1.3,0.3,2,1,2c0.3,0,0.5-0.1,0.6-0.3c0.2-0.2,0.3-0.5,0.3-0.9V12.3z"/>
			<path class="st5" d="M55.4,17.5h-1.8V6.6h3.1v3.7c0.4-0.8,1.1-1.1,2.1-1.1c0.7,0,1.2,0.2,1.7,0.5c0.5,0.4,0.8,0.9,1,1.5
				c0.2,0.7,0.3,1.3,0.3,2.1c0,1.3-0.3,2.4-0.9,3.2c-0.6,0.8-1.5,1.2-2.6,1.2c-1.1,0-2-0.4-2.6-1.3C55.7,16.7,55.5,17.1,55.4,17.5z
				 M56.8,14.5c0,0.8,0.3,1.2,0.9,1.2c0.3,0,0.6-0.1,0.8-0.4c0.2-0.3,0.3-0.9,0.3-1.8c0-1-0.1-1.6-0.3-1.9c-0.2-0.3-0.5-0.4-0.7-0.4
				c-0.2,0-0.4,0.1-0.6,0.3c-0.2,0.2-0.3,0.4-0.3,0.8V14.5z"/>
			<path class="st5" d="M71.1,17.5h-3v-1.1c-0.4,0.8-1.2,1.2-2.2,1.2c-0.9,0-1.7-0.4-2.3-1.1c-0.6-0.7-0.9-1.8-0.9-3.2
				c0-1.3,0.3-2.3,0.9-3.1C64.3,9.5,65,9.2,66,9.2c0.8,0,1.5,0.3,2,0.9V6.6h3.1V17.5z M68,12.3c0-0.7-0.3-1.1-0.9-1.1
				c-0.4,0-0.7,0.2-0.8,0.7c-0.1,0.5-0.2,1-0.2,1.7c0,1.3,0.3,2,1,2c0.3,0,0.5-0.1,0.6-0.3c0.2-0.2,0.3-0.5,0.3-0.9V12.3z"/>
			<path class="st5" d="M83,17.5l-0.6-2.1h-2.9l-0.7,2.1h-2.7l3.4-10.9H83l3.4,10.9H83z M80,13h1.8l-0.9-3.2L80,13z"/>
			<path class="st5" d="M92.1,14.3l2.7,0.2c-0.1,0.9-0.5,1.7-1.2,2.3c-0.7,0.6-1.6,0.9-2.7,0.9c-1.2,0-2.2-0.4-3-1.2
				c-0.8-0.8-1.2-1.8-1.2-3c0-1.2,0.4-2.3,1.2-3.1c0.8-0.8,1.8-1.2,3-1.2c1.1,0,2,0.3,2.7,0.9c0.7,0.6,1.1,1.4,1.2,2.3L92,12.7
				c-0.1-0.9-0.4-1.3-1-1.3c-0.3,0-0.6,0.2-0.7,0.5c-0.2,0.3-0.2,0.9-0.2,1.6c0,0.7,0.1,1.2,0.2,1.5c0.2,0.3,0.4,0.5,0.8,0.5
				C91.6,15.5,92,15.1,92.1,14.3z"/>
			<path class="st5" d="M100.6,14.3l2.7,0.2c-0.1,0.9-0.5,1.7-1.2,2.3c-0.7,0.6-1.6,0.9-2.7,0.9c-1.2,0-2.2-0.4-3-1.2
				c-0.8-0.8-1.2-1.8-1.2-3c0-1.2,0.4-2.3,1.2-3.1c0.8-0.8,1.8-1.2,3-1.2c1.1,0,2,0.3,2.7,0.9c0.7,0.6,1.1,1.4,1.2,2.3l-2.8,0.2
				c-0.1-0.9-0.4-1.3-1-1.3c-0.3,0-0.6,0.2-0.7,0.5c-0.2,0.3-0.2,0.9-0.2,1.6c0,0.7,0.1,1.2,0.2,1.5c0.2,0.3,0.4,0.5,0.8,0.5
				C100.2,15.5,100.5,15.1,100.6,14.3z"/>
			<path class="st5" d="M108.2,17.7c-1.3,0-2.4-0.4-3.2-1.3c-0.8-0.8-1.2-1.8-1.2-2.9c0-1.2,0.4-2.2,1.2-3c0.8-0.8,1.9-1.2,3.2-1.2
				c1.3,0,2.4,0.4,3.2,1.2c0.8,0.8,1.2,1.8,1.2,3c0,1.2-0.4,2.2-1.2,3C110.7,17.3,109.6,17.7,108.2,17.7z M108.3,15.8
				c0.5,0,0.8-0.3,0.9-0.8c0.1-0.5,0.2-1,0.2-1.6c0-0.8-0.1-1.3-0.2-1.6c-0.2-0.3-0.4-0.5-0.8-0.5c-0.4,0-0.6,0.2-0.8,0.5
				c-0.2,0.3-0.3,0.9-0.3,1.7c0,0.9,0.1,1.5,0.3,1.8C107.7,15.6,107.9,15.8,108.3,15.8z"/>
			<path class="st5" d="M121.8,9.4v8.1h-2.9v-1.3c-0.4,1-1.3,1.5-2.5,1.5c-0.8,0-1.4-0.2-1.8-0.6c-0.4-0.4-0.6-1-0.6-1.8V9.4h3.2
				v5.1c0,0.3,0,0.5,0.1,0.7c0.1,0.1,0.3,0.2,0.5,0.2c0.3,0,0.5-0.1,0.7-0.3c0.2-0.2,0.3-0.5,0.3-0.8V9.4H121.8z"/>
			<path class="st5" d="M131.4,17.5h-3.2v-5.1c0-0.4-0.1-0.7-0.2-0.8s-0.3-0.2-0.5-0.2c-0.6,0-0.9,0.4-0.9,1.2v4.9h-3.2V9.4h3v1.1
				c0.4-0.9,1.2-1.3,2.3-1.3c0.6,0,1.1,0.1,1.5,0.3c0.4,0.2,0.7,0.5,0.9,0.9c0.2,0.4,0.3,1,0.3,1.9V17.5z"/>
			<path class="st5" d="M138.1,9.4v2.1h-1.6v3c0,0.4,0.1,0.7,0.2,0.7c0.2,0.1,0.3,0.1,0.5,0.1c0.3,0,0.6,0,0.9-0.1v2.3
				c-0.6,0.1-1.2,0.2-1.9,0.2c-1,0-1.7-0.2-2.2-0.6c-0.5-0.4-0.7-1.1-0.7-2l0-0.9v-2.6h-1.2V9.4h1.2l0-2.6l3,0v2.7H138.1z"/>
			<path class="st5" d="M138.5,15.2l2.5-0.3c0.1,0.6,0.7,0.9,1.7,0.9c0.8,0,1.2-0.2,1.2-0.5c0-0.1-0.1-0.2-0.2-0.3
				c-0.2-0.1-0.5-0.2-1.1-0.2c-1.6-0.2-2.7-0.6-3.1-1.1c-0.4-0.5-0.6-1-0.6-1.6c0-0.8,0.3-1.5,1-2c0.7-0.5,1.6-0.8,2.7-0.8
				c2,0,3.2,0.7,3.8,2.1l-2.4,0.5c-0.2-0.5-0.7-0.7-1.4-0.7c-0.3,0-0.6,0-0.8,0.1c-0.2,0.1-0.3,0.2-0.3,0.3c0,0.3,0.3,0.4,0.8,0.5
				c1.3,0.1,2.2,0.3,2.7,0.5c0.5,0.2,0.9,0.4,1.2,0.8c0.3,0.4,0.5,0.9,0.5,1.5c0,0.9-0.4,1.6-1.1,2.1c-0.7,0.5-1.8,0.8-3.1,0.8
				C140.3,17.7,139,16.9,138.5,15.2z"/>
		</g>
	</g>
</g>
</svg>
